<svg viewBox="0 0 76 29" fill="none" xmlns="http://www.w3.org/2000/svg">
  <g>
    <path d="M4.90234 2.89241C3.85048 2.89241 3.58427 3.41718 3.58427 5.57875C3.58427 7.74032 3.84398 8.26509 4.90234 8.26509C6.44766 8.26509 7.36316 8.24635 8.40204 8.14015L8.64877 10.5828C7.56445 10.9514 6.57752 11.0951 4.90234 11.0951C1.35718 11.0951 0.0585938 9.6395 0.0585938 5.57875C0.0585938 1.51175 1.35718 0.0623779 4.90234 0.0623779C6.57102 0.0623779 7.35018 0.187324 8.41502 0.480947L8.16829 2.92364C7.08397 2.91115 6.36974 2.89241 4.90234 2.89241ZM15.9468 10.9139V2.4426H13.3172V10.9139H9.96035V0.249797H19.3102V10.9139H15.9468ZM27.6342 10.9139L27.0952 8.60869H24.1734L23.628 10.9139H20.2062L22.9787 1.11817C23.1151 0.593399 23.5631 0.249797 24.102 0.249797H27.1537C27.6926 0.249797 28.1406 0.587152 28.2835 1.11817L31.0559 10.9139H27.6342ZM26.0239 3.97319C25.946 3.58586 25.8681 3.13605 25.8356 2.75497H25.4201C25.3746 3.1423 25.3097 3.59211 25.2383 3.97319L24.7123 6.25971H26.5563L26.0239 3.97319ZM36.2828 2.89241C35.2309 2.89241 34.9647 3.41718 34.9647 5.57875C34.9647 7.74032 35.2309 8.26509 36.2828 8.26509C37.8346 8.26509 38.7436 8.24635 39.7825 8.14015L40.0292 10.5828C38.9449 10.9514 37.9515 11.0951 36.2828 11.0951C32.7376 11.0951 31.439 9.6395 31.439 5.57875C31.439 1.51175 32.7376 0.0623779 36.2828 0.0623779C37.9515 0.0623779 38.7306 0.187324 39.7955 0.480947L39.5487 2.92364C38.4644 2.91115 37.7502 2.89241 36.2828 2.89241ZM47.7493 10.9139V6.01606C47.7493 5.46005 47.8272 4.91654 47.9181 4.36053H47.8078C47.6389 4.93528 47.4377 5.47255 47.1585 5.99732L44.5418 10.9139H41.3408V0.249797H44.5288V4.97901C44.5288 5.50378 44.4509 6.12227 44.36 6.70951H44.4704C44.6587 6.13476 44.8859 5.56626 45.1521 5.07272L47.7493 0.249797H50.9374V10.9139H47.7493Z" fill="white"/>
    <path d="M7.60938 18.1483C6.72634 18.0421 6.13548 18.0109 4.96026 18.0109C2.6228 18.0109 1.70729 19.0479 1.19435 22.6839C0.71387 26.1261 1.28525 27.2631 3.53181 27.2631C4.86286 27.2756 5.65501 27.2132 6.51857 27.0945L6.59648 27.8566C5.70046 28.0815 4.86936 28.1753 3.53181 28.1753C0.512588 28.1753 -0.415904 26.5759 0.155476 22.5839C0.71387 18.5357 1.95402 17.0863 4.95377 17.0863C6.28482 17.0863 6.9536 17.18 7.78469 17.3799L7.60938 18.1483ZM17.0826 22.6776C16.5242 26.7883 15.2711 28.1753 12.2843 28.1753C9.343 28.1753 8.29114 26.7446 8.86252 22.5839C9.42092 18.5357 10.6416 17.0863 13.6933 17.0863C16.6476 17.0925 17.6735 18.5481 17.0826 22.6776ZM13.6608 17.9921C11.2909 17.9921 10.4078 19.1416 9.8949 22.6839C9.42741 26.1261 10.0053 27.2756 12.2973 27.2756C14.6218 27.2756 15.5308 26.1136 16.0307 22.5902C16.5437 19.0792 15.9658 17.9921 13.6608 17.9921ZM30.075 22.5527C29.627 25.795 28.1531 26.9633 24.517 27.057L24.3028 28.6251H23.2964L23.4976 27.057C19.9395 26.9508 18.7578 25.7201 19.2253 22.4652C19.6733 19.2229 21.1602 18.0546 24.7832 17.9609L24.9975 16.3928H26.0169L25.7961 17.9734C29.3283 18.0858 30.523 19.2978 30.075 22.5527ZM20.2382 22.5527C19.8681 25.2827 20.7187 26.1199 23.647 26.1886L24.6858 18.8293C21.7575 18.923 20.6278 19.8226 20.2382 22.5527ZM25.6468 18.8293L24.6079 26.1886C27.5362 26.0949 28.666 25.1765 29.0556 22.4652C29.4257 19.7601 28.5686 18.8917 25.6468 18.8293ZM33.711 25.5201L39.9508 17.2799H41.0351L39.5352 27.9878H38.5613L39.6586 20.1475C39.7365 19.6352 39.8274 19.1104 39.9248 18.5919L39.8793 18.6106C39.6456 18.9667 39.4184 19.3728 39.1846 19.6789L32.8864 27.9816H31.7891L33.289 17.2737H34.2824L33.1851 25.0828C33.1072 25.6076 33.0488 26.0762 32.9059 26.6634L32.9514 26.6447C33.1851 26.2636 33.4773 25.845 33.711 25.5201ZM49.0993 27.9878H48.0799L48.7163 23.5023C48.067 23.5148 47.3203 23.5148 46.1126 23.5335C45.275 23.5335 44.7815 23.9208 44.379 24.7892L42.957 27.9878H41.8402L43.3271 24.683C43.8076 23.7084 44.3205 23.2711 44.9503 23.1649L44.9633 23.1024C43.6453 22.8213 43.1648 21.5656 43.3985 19.9975C43.7102 17.9047 44.8205 17.155 46.9567 17.155C48.6773 17.155 49.5409 17.1737 50.5927 17.2799L49.0993 27.9878ZM44.4374 20.1037C44.1712 21.6718 44.6841 22.6526 46.2359 22.6526H48.8201L49.4694 18.0609C48.8526 18.0421 47.9826 18.0296 46.9761 18.0296C45.4633 18.0234 44.6906 18.5356 44.4374 20.1037Z" fill="#E9AC49"/>
    <path d="M68.4876 28.5689L64.1243 28.7376C64.1243 28.7376 64.1113 28.7376 64.1243 28.5689C64.1373 28.4002 64.8385 27.6255 64.8385 27.6255C64.8385 27.6255 66.5462 27.1445 67.689 27.3694C68.8252 27.5881 68.4876 28.5689 68.4876 28.5689ZM59.4039 10.8703C59.4039 10.8703 58.7287 10.9577 58.5144 10.9577C58.3001 10.9577 58.1573 11.0452 58.1573 11.0452C58.1573 11.0452 57.534 11.1077 57.2678 11.1326C57.0016 11.1576 56.3782 11.1326 56.3782 11.1326C56.3782 11.1326 55.7809 11.0827 55.9302 10.8765C56.086 10.6703 56.1964 10.6204 56.1964 10.6204C56.1964 10.6204 56.4107 10.1206 56.9107 10.1081C57.4041 10.0956 57.8002 10.2768 57.8002 10.2768C57.8002 10.2768 58.2742 10.3767 58.5144 10.1893C58.7547 10.0019 59.2286 9.67077 59.2286 9.67077C59.2286 9.67077 59.9883 9.05854 60.3844 9.5021C60.7805 9.94565 61.3648 11.395 61.3648 11.395L59.4039 10.8703ZM74.539 6.40343C74.3897 6.4784 74.2728 6.57836 74.2728 6.57836C74.2728 6.57836 74.2339 7.14061 74.0975 7.26556C73.9547 7.39051 73.6625 7.63415 73.3833 7.60916C73.1041 7.58417 72.6561 7.62166 72.4937 7.78409C72.3249 7.94652 71.7795 8.81489 71.7795 8.81489L65.9034 9.5021C65.9034 9.5021 63.4231 7.99025 63.4101 7.52795C63.3971 7.0594 63.4101 6.84074 63.4101 6.84074L64.2087 5.80994C64.2087 5.80994 64.9814 6.0036 65.1892 5.5538C65.3905 5.09774 65.1892 4.00446 65.1892 4.00446C65.1892 4.00446 64.5269 3.63587 64.5658 3.40472C64.6048 3.17357 64.6567 3.06112 64.6567 3.06112C64.6567 3.06112 64.6438 2.59257 64.6567 2.46138C64.6697 2.32394 64.7476 2.11778 64.7476 2.11778L64.923 0.399768L65.1892 0.224843L65.0983 0.480983C65.0983 0.480983 65.3385 0.41851 65.4554 0.39352C65.5333 0.374778 65.5463 0.381026 65.5463 0.387273V0.39352C65.5463 0.39352 65.5463 0.39352 65.5463 0.387273L65.6372 0.0499185C65.6372 0.0499185 65.9553 -0.0500385 66.1696 0.0499185H66.2605V0.224843L66.7929 0.312305V0.131133C66.7929 0.131133 67.1241 0.0936496 67.2345 0.218596C67.3513 0.343542 67.3254 0.39352 67.3254 0.39352V0.64966L67.4163 0.818337L67.5072 0.562198C67.5072 0.562198 67.7084 0.462241 67.6825 0.64966C67.6565 0.837079 67.7734 1.85539 67.7734 1.85539C67.7734 1.85539 68.0136 3.09236 67.9487 3.31726C67.8837 3.53592 67.5916 5.46633 67.5916 5.46633C67.5916 5.46633 67.8708 5.84742 68.4811 5.80994C69.0914 5.77245 69.8186 6.67207 69.8186 6.67207C69.8186 6.67207 70.429 7.19059 70.7991 6.75953C71.1692 6.32846 71.6886 6.75953 71.6886 6.75953C71.6886 6.75953 72.1821 6.90946 72.4028 6.84699C72.6171 6.78452 73.0132 6.33471 73.2924 6.24725C73.5716 6.15979 73.7988 6.1348 74.0066 6.15979C74.2079 6.18477 74.6299 6.15979 74.6299 6.15979C74.6299 6.15979 74.6884 6.32846 74.539 6.40343Z" fill="#E9AC49"/>
    <path d="M75.8705 3.91077C75.7082 3.87953 75.4225 3.91077 75.4225 3.91077L75.7796 4.1669C75.7796 4.1669 75.6043 4.25437 75.4225 4.25437C75.2472 4.25437 75.2472 4.25437 75.2472 4.25437L75.5134 4.51051C75.5134 4.51051 75.2472 4.65419 75.1563 4.59797C75.0654 4.54174 74.7992 4.51051 74.7992 4.51051L74.8901 4.76665H74.4421V4.93532H74.0849L73.994 5.104C73.994 5.104 73.7148 5.09151 73.6369 5.27893C73.5655 5.46634 73.2798 5.4476 73.2798 5.4476C73.2798 5.4476 73.0266 5.40387 72.9227 5.53506C72.8188 5.66626 72.3448 5.83494 72.2085 5.7912C72.0721 5.74747 71.767 5.61628 71.767 5.61628C71.767 5.61628 71.8579 6.10357 71.8579 6.30348C71.8579 6.5034 71.8579 6.73455 71.8579 6.73455C71.8579 6.73455 71.2216 6.63459 70.9683 6.99069C70.7151 7.34678 70.4943 7.90904 70.9683 8.27763C71.4423 8.65247 71.8579 8.19017 71.8579 8.19017L72.3059 7.93403C72.3059 7.93403 72.228 8.68995 72.1306 9.3959C72.0267 10.0956 71.9942 10.9452 72.0397 11.2014C72.0851 11.4575 72.2929 12.2447 71.9488 12.4883C71.6046 12.732 71.28 12.8194 71.1501 13.0006C71.0138 13.188 70.6177 13.1755 70.6177 13.1755C70.6177 13.1755 70.4554 13.2317 70.3515 13.3442C70.2476 13.4566 69.9944 13.4317 69.9944 13.4317C69.9944 13.4317 70.2022 13.5191 70.1697 13.6003C70.1372 13.6878 70.0788 13.8565 70.0788 13.8565C70.0788 13.8565 70.0528 14.0252 70.2606 14.2001C70.4684 14.375 70.7021 14.6436 70.7021 14.8873C70.7021 15.1309 70.7021 15.5745 70.7021 15.5745C70.7021 15.5745 70.6307 15.6869 70.5268 15.7432C70.4229 15.7994 70.2606 15.8306 70.2606 15.8306L70.5268 16.4304C70.5268 16.4304 70.5982 16.6428 70.5268 16.8614C70.4554 17.0738 70.2606 17.3737 70.2606 17.3737C70.2606 17.3737 70.1372 17.5736 70.3515 17.9734C70.5593 18.3733 70.8385 18.6169 71.5072 19.2604C72.176 19.9039 72.3968 20.4349 72.1306 20.7223C71.8644 21.0096 71.6826 21.4969 71.6826 21.4969C71.6826 21.4969 71.5787 21.4407 71.3254 21.7531C71.0722 22.0654 70.8385 22.0842 70.793 22.0967C70.7476 22.1092 70.5398 22.3403 70.6177 22.5277C70.6891 22.7152 70.4424 22.8713 70.4424 22.8713L70.2671 23.04H69.91C69.91 23.04 69.9814 23.4961 70.1762 23.5523C70.371 23.6085 70.2476 23.7959 70.0853 23.9834C69.923 24.1708 69.462 24.758 69.462 24.758L69.1957 24.8455C69.1957 24.8455 69.6243 25.6889 69.7282 25.9638C69.8321 26.2386 70.1113 26.5635 69.9944 26.8259C69.8775 27.082 69.8775 27.4569 69.9035 27.688C69.9295 27.9192 70.1827 28.4752 69.9944 28.6314C69.7996 28.7875 69.6373 28.975 69.6373 28.975C69.6373 28.975 69.1049 28.6001 68.7477 28.5439C68.3906 28.4877 68.079 28.6001 67.9491 28.3752C67.8127 28.1441 67.5465 27.9004 67.3258 28.0316C67.105 28.1628 66.6116 28.6314 66.6116 28.6314H65.8973C65.8973 28.6314 65.748 28.0441 65.3649 28.0316C64.9818 28.0191 64.4754 28.4627 64.4754 28.4627L64.3001 28.7188H63.9429V28.5501L63.5858 28.1191V27.8629L64.1183 27.688C64.1183 27.688 63.9429 27.3694 64.1183 27.1757C64.2936 26.9758 64.3845 26.8321 64.3845 26.8321V26.4885C64.3845 26.4885 64.8909 25.4577 64.6507 24.1708C64.4104 22.8838 64.4104 22.3653 64.4754 21.6781C64.5338 20.9909 64.4169 19.1292 64.1183 18.3295C63.8196 17.5236 63.852 16.8427 63.852 16.093C63.852 15.3496 63.7611 14.1189 63.7611 14.1189C63.7611 14.1189 61.9821 14.0626 61.2678 13.5191C60.5536 12.9756 59.6641 11.545 59.6641 11.545L59.2161 10.9452C59.2161 10.9452 59.6901 11.0577 59.8394 10.8578C59.9887 10.6579 60.164 10.258 59.9303 9.99564C59.6901 9.7395 59.4563 9.56458 59.307 9.65204C59.1576 9.7395 59.0408 9.7395 59.0408 9.7395C59.0408 9.7395 59.5147 9.16475 60.2874 8.88362C61.0601 8.59624 61.8912 8.02149 62.1574 7.59668C62.4236 7.16561 62.6054 6.56587 62.6054 6.56587C62.6054 6.56587 62.93 6.07858 63.404 5.96613C63.878 5.85368 64.2936 5.7912 64.2936 5.7912C64.2936 5.7912 64.1183 6.33472 64.6507 6.90947C65.1831 7.48422 65.3909 7.70913 65.5402 7.94028C65.6896 8.17143 65.8973 8.4588 65.8973 8.4588C65.8973 8.4588 66.3713 7.65915 66.696 7.34054C67.0206 7.02817 67.4946 6.70956 67.7673 6.48466C68.0335 6.25351 68.2997 5.79745 68.2997 5.79745C68.2997 5.79745 69.1893 5.62253 69.5464 5.88491C69.9035 6.14105 70.5268 6.74704 70.5268 6.74704V6.31598C70.5268 6.31598 71.0008 6.51589 70.793 5.8037C70.5852 5.08526 70.4359 4.66044 70.4359 4.08569C70.4359 3.51094 70.6112 2.96742 70.6112 2.96742C70.6112 2.96742 70.8774 2.76751 71.1436 2.71128C71.4098 2.65506 71.8579 2.53636 71.8579 2.53636C71.8579 2.53636 71.6826 2.76751 71.6826 3.05488C71.6826 3.34226 71.6826 3.65463 71.6826 3.65463C71.6826 3.65463 72.4552 3.02365 73.0201 2.96742C73.585 2.9112 75.6887 3.31102 75.6887 3.31102C75.6887 3.31102 75.8965 3.56716 75.5978 3.56716C75.377 3.56716 75.3316 3.56716 75.3316 3.56716C75.3316 3.56716 75.6887 3.65463 75.864 3.65463C76.0523 3.65463 76.0328 3.942 75.8705 3.91077ZM56.8202 10.8703C56.5215 10.8578 56.7487 11.0264 56.9111 11.1264C57.0734 11.2264 57.4435 11.1264 57.4435 11.1264L57.5344 11.2139L57.2682 11.3013L57.7097 11.6449C57.7097 11.6449 57.3201 11.5325 56.9111 11.4763C56.4955 11.42 56.1968 11.1327 56.1968 11.1327C56.1968 11.1327 56.6124 10.6579 56.7293 10.4454C56.8461 10.233 56.6838 9.94566 56.1968 9.67078C55.7099 9.3959 54.5931 9.58332 54.5931 9.58332C54.5931 9.58332 54.5217 10.0144 54.8593 10.2705C55.1969 10.5267 56.1968 10.5267 56.1968 10.5267L56.0215 10.9577C56.0215 10.9577 55.593 10.8703 54.8658 10.7828C54.1386 10.6953 53.5477 10.1081 53.6191 9.752C53.6906 9.3959 54.5996 9.4084 54.5996 9.4084C54.5996 9.4084 54.9112 9.00857 55.4891 8.89612C56.067 8.78366 56.8981 9.12727 57.4435 9.58332C57.9954 10.0394 57.3526 10.8703 57.3526 10.8703C57.3526 10.8703 57.1188 10.8828 56.8202 10.8703ZM58.6901 11.47L58.2486 11.1264V11.8136C58.2486 11.8136 57.8915 11.6574 57.8006 11.47C57.8006 11.47 57.9759 11.3388 57.9759 11.1264C57.9759 10.914 58.1512 10.8703 58.1512 10.8703L58.9564 11.2139L58.6901 11.47ZM65.3714 4.85411C65.3519 5.33515 65.1961 5.54131 65.1961 5.54131C65.1961 5.54131 65.1247 5.54131 65.0208 5.37264C64.9104 5.19771 64.9688 5.1165 64.9299 4.94157C64.8909 4.77289 64.9299 4.62921 64.7546 4.59797C64.5793 4.56049 64.6117 4.23563 64.6637 4.07944C64.7156 3.92326 64.6637 3.62964 64.5728 3.4797C64.4819 3.32352 64.6052 3.1361 64.6637 3.04864C64.7156 2.96118 64.6247 2.94868 64.5728 2.61757C64.5208 2.29271 64.7481 2.10529 64.7481 2.10529V3.04864C64.7481 3.04864 64.6961 2.99866 64.6572 3.30478C64.6182 3.61714 64.852 3.56092 64.9234 3.47345C64.9948 3.38599 64.9234 3.04239 64.9234 3.04239V2.69879C64.9234 2.69879 64.9948 3.14235 65.0987 3.38599C65.2026 3.62339 65.3649 3.81706 65.3649 3.81706C65.3649 3.81706 65.3844 4.37307 65.3714 4.85411ZM68.1309 3.91077C68.066 3.97949 68.0725 4.03571 68.2218 4.1669C68.3711 4.30435 68.1504 4.63545 68.0465 4.68543C67.9426 4.73541 67.9491 4.81662 67.9556 5.02903C67.9621 5.24144 67.9426 5.26643 67.8647 5.28517C67.7868 5.30391 67.6894 5.54131 67.6894 5.54131C67.6894 5.54131 67.4362 5.15398 67.2414 4.94157C67.0466 4.72916 67.0661 4.42304 67.0661 4.42304C67.0661 4.42304 67.0466 3.66712 67.0661 3.39224C67.0855 3.11736 67.0596 2.98616 67.157 2.87371C67.2544 2.76751 67.3323 2.53011 67.3323 2.53011L67.4232 2.09905V2.95493C67.4232 2.95493 67.2284 3.14235 67.3323 3.29853C67.4362 3.45471 67.7154 3.39849 67.7803 3.21107C67.8387 3.02365 67.605 2.86747 67.605 2.86747V1.41809C67.605 1.41809 67.6569 1.62425 67.7803 1.84915C67.9037 2.06781 68.0335 2.08031 68.1374 2.19276C68.2413 2.30521 68.1958 2.53636 68.1374 2.71128C68.079 2.87996 68.2088 3.04239 68.3127 3.31102C68.4101 3.57966 68.1958 3.84205 68.1309 3.91077ZM65.4558 2.01783L65.0987 2.10529C65.0208 1.91788 65.2286 1.79293 65.3649 1.84915C65.5013 1.90538 65.4558 2.01783 65.4558 2.01783ZM66.5271 1.93662C66.5271 1.93662 66.5012 1.74295 66.7089 1.76169C66.9167 1.78043 66.9752 1.93662 66.9752 1.93662H66.5271Z" fill="white"/>
  </g>
</svg>
