<svg width="72" height="72" viewBox="0 0 72 72" fill="none" xmlns="http://www.w3.org/2000/svg">
<path fill-rule="evenodd" clip-rule="evenodd" d="M7.92156 17.28V54.96H27.6016V17.28H7.92156ZM31.9216 54.96V17.28H39.6016V54.96H31.9216ZM29.7616 12.96H41.7616H63.9616C64.4816 12.96 64.9965 13.0625 65.477 13.2615C65.9574 13.4605 66.394 13.7522 66.7617 14.1199C67.1294 14.4876 67.4211 14.9241 67.6201 15.4046C67.8191 15.8851 67.9216 16.4 67.9216 16.92V55.32C67.9216 55.84 67.8191 56.355 67.6201 56.8354C67.4211 57.3159 67.1294 57.7524 66.7617 58.1202C66.394 58.4879 65.9574 58.7796 65.477 58.9786C64.9965 59.1776 64.4816 59.28 63.9616 59.28H41.7616H29.7616H7.56156C6.51131 59.28 5.50407 58.8628 4.76142 58.1202C4.01877 57.3775 3.60156 56.3703 3.60156 55.32V16.92C3.60156 15.8698 4.01878 14.8625 4.76142 14.1199C5.50406 13.3772 6.5113 12.96 7.56156 12.96H29.7616ZM43.9216 54.96H63.6016V17.28H43.9216V54.96ZM20.7616 29.667C20.7616 28.425 19.5226 27.57 18.5116 28.296C17.3503 29.1288 16.4044 30.2264 15.7522 31.4979C15.1001 32.7694 14.7604 34.178 14.7616 35.607C14.7616 38.619 16.2406 41.286 18.5116 42.921C19.5226 43.647 20.7616 42.792 20.7616 41.55V29.67V29.667ZM53.0116 28.296C52.0006 27.57 50.7616 28.425 50.7616 29.667V29.67V41.55C50.7616 42.792 52.0006 43.647 53.0116 42.921C54.1732 42.0879 55.1194 40.9898 55.7716 39.7178C56.4238 38.4457 56.7632 37.0365 56.7616 35.607C56.7627 34.178 56.4231 32.7694 55.7709 31.4979C55.1187 30.2264 54.1728 29.1288 53.0116 28.296Z" fill="#3E294D"/>
</svg>
