<svg width="52" height="61" viewBox="0 0 52 61" fill="none" xmlns="http://www.w3.org/2000/svg">
<path d="M26 0.991028C26.5967 0.991028 27.169 1.22808 27.591 1.65004C28.0129 2.07199 28.25 2.64429 28.25 3.24103V7.00003H34.25C37.148 7.00003 39.5 9.35203 39.5 12.25V28H46.25C49.148 28 51.5 30.352 51.5 33.25V55.75C51.5 57.1424 50.9469 58.4778 49.9623 59.4623C48.9777 60.4469 47.6424 61 46.25 61H5.75C4.35761 61 3.02226 60.4469 2.03769 59.4623C1.05312 58.4778 0.5 57.1424 0.5 55.75V30.463C0.5 28.606 1.481 26.887 3.08 25.942L12.5 20.38V12.25C12.5 9.35203 14.852 7.00003 17.75 7.00003H23.75V3.24103C23.75 2.64429 23.9871 2.07199 24.409 1.65004C24.831 1.22808 25.4033 0.991028 26 0.991028ZM17 19.06C19.43 19.42 21.5 21.478 21.5 24.262V56.5H30.5V33.25C30.5 31.9876 30.955 30.7675 31.7814 29.8132C32.6079 28.8589 33.7505 28.2344 35 28.054V12.25C35 12.0511 34.921 11.8604 34.7803 11.7197C34.6397 11.579 34.4489 11.5 34.25 11.5H17.75C17.5511 11.5 17.3603 11.579 17.2197 11.7197C17.079 11.8604 17 12.0511 17 12.25V19.06ZM35.75 32.503C35.5511 32.503 35.3603 32.5821 35.2197 32.7227C35.079 32.8634 35 33.0541 35 33.253V56.503H46.25C46.4489 56.503 46.6397 56.424 46.7803 56.2834C46.921 56.1427 47 55.9519 47 55.753V33.253C47 33.0541 46.921 32.8634 46.7803 32.7227C46.6397 32.5821 46.4489 32.503 46.25 32.503H35.75ZM15.869 23.614L5.369 29.818C5.2572 29.884 5.16442 29.9778 5.09974 30.0903C5.03506 30.2028 5.0007 30.3302 5 30.46V55.75C5 56.161 5.336 56.5 5.75 56.5H17V24.256C16.9998 24.1239 16.9647 23.9941 16.8983 23.8799C16.8318 23.7657 16.7363 23.671 16.6215 23.6055C16.5067 23.5401 16.3767 23.5061 16.2445 23.5071C16.1124 23.508 15.9828 23.5439 15.869 23.611V23.614Z" fill="#3E294D"/>
</svg>
