<svg width="46" height="69" viewBox="0 0 46 69" fill="none" xmlns="http://www.w3.org/2000/svg">
<path d="M39.4435 16.0202C35.7236 9.71763 30.4425 4.47977 24.1096 0.811688L22.9829 0.160034L21.8562 0.811688C15.4155 4.5287 10.0673 9.87645 6.34987 16.3169C2.6324 22.7573 0.676751 30.0632 0.679691 37.4995C0.679691 37.9839 0.688129 38.476 0.704582 38.962C0.928458 45.5511 3.44833 51.0955 7.99179 54.9957C11.4686 57.9805 15.9284 59.8025 20.7334 60.2372V68.0091H25.2335V32.0092H20.7329V55.7084C13.1301 54.8277 5.56319 49.4569 5.20164 38.809C5.18674 38.3737 5.17914 37.9332 5.17914 37.4995C5.19253 31.0785 6.8324 24.7656 9.9457 19.1498C13.059 13.5341 17.5443 8.79856 22.9829 5.38522C28.4214 8.79862 32.9066 13.5342 36.0198 19.1499C39.133 24.7657 40.7727 31.0786 40.7861 37.4995C40.7861 37.9332 40.7785 38.3737 40.7636 38.8091C40.4744 47.3272 35.5735 52.4675 29.7323 54.6344V59.397C32.7634 58.5378 35.5742 57.0367 37.974 54.9954C42.5175 51.0952 45.0373 45.5508 45.2612 38.9618C45.2777 38.4758 45.2861 37.9838 45.2861 37.4993C45.2901 29.9466 43.2728 22.5303 39.4435 16.0202Z" fill="#3E294D"/>
</svg>
